<?xml version="1.0" encoding="UTF-8"?><svg xmlns="http://www.w3.org/2000/svg" viewBox="0 0 2911.043 2911.043"><g id="a"><circle cx="1455.522" cy="1455.522" r="1455.522" fill="#fafbfd" stroke-width="0"/></g><g id="b"><path d="M1976.877,1285.597c-265.192,214.642-559.29,259.057-874.268,213.049-67.979-9.93-76.624-39.211-29.499-92.607,99.737-113.008,225.848-187.445,365.024-241.453,23.042-8.942,46.382-17.119,75.657-27.884-127.181-53.614-455.065,50.665-612.67,191.816-207.065,185.448-348.63,513.383-216.853,917.476-220.063-235.226-273.333-780.515,45.519-1161.898,330.881-395.771,931.385-455.349,1320.901-133.182,466.5,385.84,427.122,1001.807,167.161,1334.633,78.98-189.115,93.482-369.391,47.969-551.217-45.423-181.466-145.026-330.542-288.942-448.731Z" fill="#145cfc" stroke-width="0"/><path d="M657.858,1037.26c-33.343,41.126-65.642,83.157-100.304,123.139-39.422,45.473-90.745,46.04-129.441.746-62.685-73.372-123.845-148.058-185.02-222.705-35.505-43.324-37.365-85.334,2.144-129.681,42.857-48.105,83.037-98.764,121.959-150.146,27.26-35.986,58.557-41.767,96.31-21.597,91.238,48.745,183.524,95.756,272.722,148.016,63.152,37,66.976,70.973,22.272,129.337-32.187,42.024-66.472,82.441-99.821,123.575-.274-.228-.548-.457-.821-.686Z" fill="#145cfc" stroke-width="0"/><path d="M2253.186,1037.26c33.343,41.126,65.642,83.157,100.304,123.139,39.422,45.473,90.745,46.04,129.441.746,62.685-73.372,123.845-148.058,185.02-222.705,35.505-43.324,37.365-85.334-2.144-129.681-42.857-48.105-83.037-98.764-121.959-150.146-27.26-35.986-58.557-41.767-96.31-21.597-91.238,48.745-183.524,95.756-272.722,148.016-63.152,37-66.976,70.973-22.272,129.337,32.187,42.024,66.472,82.441,99.821,123.575.274-.228.548-.457.821-.686Z" fill="#145cfc" stroke-width="0"/><circle cx="1094.256" cy="1910.939" r="126.618" fill="#145cfc" stroke-width="0"/><circle cx="1832.259" cy="1910.939" r="126.618" fill="#145cfc" stroke-width="0"/></g></svg>